:version 1.10
:name ASF
:units
  mass 1
  length 1
  angle deg
:documentation
  ASF file generated by Kaydara
:root
  axis xyz
  order  tx ty tz rx ry rz
  position 0 0 0
  orientation 0 0 0
:bonedata
  begin
    id 1
    name abdomenDummy
    direction 1 -1.27917e-005 -1.26829e-007
    length 1.79048
    axis 0 0 0 xyz
  end
  begin
    id 2
    name abdomen
    direction 0.987238 0.159249 -9.68575e-008
    length 8.61378
    axis 2.73208e-005 5.54953e-006 9.16328 xyz
    dof rx ry rz
  end
  begin
    id 3
    name chest
    direction 0 0 0
    length 0
    axis 2.65071e-005 8.63688e-006 2.59796 xyz
    dof rx ry rz
  end
  begin
    id 4
    name neckDummyDummy
    direction 0.998972 0.0453274 -1.50742e-007
    length 9.56202
    axis 2.65071e-005 8.63688e-006 2.59796 xyz
  end
  begin
    id 5
    name neckDummy
    direction 0.99977 0.0214525 -1.61748e-007
    length 1.93574
    axis 2.62932e-005 9.26758e-006 1.22924 xyz
    dof rx ry rz
  end
  begin
    id 6
    name neck
    direction 0.99928 -0.0379406 -1.88707e-007
    length 3.70367
    axis 2.56966e-005 1.08122e-005 -2.17436 xyz
    dof rx ry rz
  end
  begin
    id 7
    name head
    direction 0.992648 -0.121037 -2.25408e-007
    length 6.35158
    axis 2.47068e-005 1.29149e-005 -6.95196 xyz
    dof rx ry rz
  end
  begin
    id 8
    name figureHair
    direction -0.86681 -0.498639 -7.83376e-008
    length 8.29884
    axis -2.7515e-005 4.48842e-006 -150.09 xyz
    dof rx ry rz
  end
  begin
    id 9
    name lCollarDummy
    direction 0.994611 0.0451299 -0.0933417
    length 9.60395
    axis 2.65071e-005 8.63688e-006 2.59796 xyz
  end
  begin
    id 10
    name lCollar
    direction 0.0384146 0.00127577 -0.999261
    length 6.95318
    axis 90.4899 87.7973 1.90202 xyz
    dof rx ry rz
  end
  begin
    id 11
    name lShldr
    direction -0.030648 0.0920515 -0.995282
    length 9.61158
    axis -161.793 84.4324 108.415 xyz
    dof rx ry rz
  end
  begin
    id 12
    name lForeArm
    direction 0.000163956 -0.0977586 -0.99521
    length 8.6068
    axis 0.134773 84.3899 -89.8525 xyz
    dof rx ry rz
  end
  begin
    id 13
    name lHand
    direction -0.0190533 -0.1444 -0.989336
    length 7.61479
    axis -7.3729 81.6249 -97.517 xyz
    dof rx ry rz
  end
  begin
    id 14
    name rCollarDummy
    direction 0.994871 0.0442627 0.0909555
    length 9.60761
    axis 2.65071e-005 8.63688e-006 2.59796 xyz
  end
  begin
    id 15
    name rCollar
    direction 0.0334251 -4.74072e-007 0.999441
    length 6.97058
    axis -178.152 -88.0845 -0.000674207 xyz
    dof rx ry rz
  end
  begin
    id 16
    name rShldr
    direction -0.026922 0.0719509 0.997045
    length 9.60913
    axis 71.2822 -85.594 110.514 xyz
    dof rx ry rz
  end
  begin
    id 17
    name rForeArm
    direction 0.00134679 -0.118986 0.992895
    length 8.57176
    axis -88.7923 -83.1659 -89.3516 xyz
    dof rx ry rz
  end
  begin
    id 18
    name rHand
    direction -0.0185183 -0.0768601 0.99687
    length 7.69687
    axis -74.5596 -85.4655 -103.546 xyz
    dof rx ry rz
  end
  begin
    id 19
    name lThighDummy
    direction -0.236086 -0.0385456 -0.970967
    length 4.99155
    axis 0 0 0 xyz
  end
  begin
    id 20
    name lThigh
    direction -0.993968 0.0148998 -0.108653
    length 13.572
    axis -91.4001 6.23768 179.141 xyz
    dof rx ry rz
  end
  begin
    id 21
    name lShin
    direction -0.992341 0.0904576 -0.0841193
    length 18.5862
    axis -91.4558 4.82538 174.792 xyz
    dof rx ry rz
  end
  begin
    id 22
    name lFoot
    direction 0.0209381 -0.999771 -0.00453005
    length 8.44474
    axis 4.86759 0.259522 -88.8001 xyz
    dof rx ry rz
  end
  begin
    id 23
    name rThighDummy
    direction -0.236086 -0.0385456 0.970967
    length 4.99155
    axis 0 0 0 xyz
  end
  begin
    id 24
    name rThigh
    direction -0.993968 0.0148995 0.108653
    length 13.5721
    axis -89.7059 -6.2377 179.141 xyz
    dof rx ry rz
  end
  begin
    id 25
    name rShin
    direction -0.9925 0.0899962 0.0827255
    length 18.6716
    axis -89.2745 -4.74775 174.819 xyz
    dof rx ry rz
  end
  begin
    id 26
    name rFoot
    direction 0.0301721 -0.999545 9.70865e-005
    length 8.45013
    axis -2.50066e-005 -0.00555246 -88.271 xyz
    dof rx ry rz
  end
:hierarchy
  begin
    root abdomenDummy lThighDummy rThighDummy
    abdomenDummy abdomen
    abdomen chest
    chest neckDummyDummy lCollarDummy rCollarDummy
    neckDummyDummy neckDummy
    neckDummy neck
    neck head
    head figureHair
    lCollarDummy lCollar
    lCollar lShldr
    lShldr lForeArm
    lForeArm lHand
    rCollarDummy rCollar
    rCollar rShldr
    rShldr rForeArm
    rForeArm rHand
    lThighDummy lThigh
    lThigh lShin
    lShin lFoot
    rThighDummy rThigh
    rThigh rShin
    rShin rFoot
  end

:SAMPLES-PER-SECOND 25
:FULLY-SPECIFIED
:DEGREES
79
root  0.557889 34.4585 8.66312 -178.122 -1.44276 83.8415
abdomen  -4.93723 8.20996 -16.7284
chest  -11.003 -25.0499 3.25347
neckDummy  3.03321e-021 0 6.73878e-016
neck  5.24485 8.31747 22.4714
head  1.02073 2.01705 -3.31793
figureHair  0 0 -1.04948e-014
lCollar  -3.38943e-016 -6.49156e-016 -7.51406e-014
lShldr  10.2841 -13.9539 -66.375
lForeArm  44.4592 -71.6733 4.9588
lHand  0.254698 0.195082 5.2986
rCollar  2.67893e-016 -5.20816e-014 1.63997e-015
rShldr  75.6106 31.3157 26.43
rForeArm  -3.31232 -0.626552 109.458
rHand  -10.3152 -41.9002 30.2643
lThigh  -2.36631 4.79478 -6.80625
lShin  1.79957 37.0542 2.50201
lFoot  1.49519 -0.48691 13.7024
rThigh  20.1589 -30.2897 -1.28216
rShin  -5.96153 29.1258 -1.98956
rFoot  -8.47863 -2.08208 -11.1362
80
root  -1.42195 34.4127 8.13478 -174.764 -3.02904 83.5907
abdomen  -3.67951 4.06195 -16.1622
chest  -9.38139 -21.5411 4.27151
neckDummy  3.03321e-021 0 6.73878e-016
neck  2.26306 12.8322 22.1025
head  -3.92587 -1.74622 -3.23755
figureHair  0 0 -1.04948e-014
lCollar  -3.38943e-016 -6.49156e-016 -7.51406e-014
lShldr  11.0615 -14.082 -67.013
lForeArm  46.7327 -72.8234 5.41703
lHand  0.254698 0.195082 5.2986
rCollar  2.67893e-016 -5.20816e-014 1.63997e-015
rShldr  84.7699 27.5074 31.3793
rForeArm  -2.66845 -0.641528 110.167
rHand  -12.4135 -42.8885 34.5777
lThigh  -0.920361 -2.67467 -3.13637
lShin  2.30077 51.1888 3.17659
lFoot  -2.13841 0.746378 1.49905
rThigh  21.676 -29.375 -0.724037
rShin  -3.93975 35.0745 -2.01967
rFoot  -9.26871 1.13241 -6.70158
81
root  -3.22552 34.5912 7.65841 -171.292 -3.65119 83.3176
abdomen  -2.55935 1.16287 -16.2836
chest  -7.49826 -17.9548 4.86034
neckDummy  3.03321e-021 0 6.73878e-016
neck  -1.35474 15.6455 22.2625
head  -8.68846 -4.72016 -3.28922
figureHair  0 0 -1.04948e-014
lCollar  -3.38943e-016 -6.49156e-016 -7.51406e-014
lShldr  11.5172 -12.9046 -67.1359
lForeArm  47.3865 -73.7064 5.78871
lHand  0.254698 0.195082 5.2986
rCollar  2.67893e-016 -5.20816e-014 1.63997e-015
rShldr  83.4956 23.1935 32.5785
rForeArm  -5.50114 -0.573639 106.7
rHand  -11.5561 -42.6765 32.6676
lThigh  -0.12242 -11.6551 -0.898688
lShin  0.504538 63.4375 4.22012
lFoot  -1.5605 -0.269316 -10.2002
rThigh  24.4519 -25.8771 -0.438952
rShin  -2.83212 36.6325 -2.05139
rFoot  -8.18176 0.391057 -0.714039
82
root  -4.92502 35.0388 7.30823 -168.782 -2.86747 83.4179
abdomen  -1.65371 0.00297835 -16.2338
chest  -5.58563 -14.3497 4.61657
neckDummy  3.03321e-021 0 6.73878e-016
neck  -4.72865 17.2537 21.5557
head  -12.5897 -7.16743 -2.31523
figureHair  0 0 -1.04948e-014
lCollar  -3.38943e-016 -6.49156e-016 -7.51406e-014
lShldr  10.5387 -10.3072 -66.8133
lForeArm  45.7241 -73.5956 5.76346
lHand  0.254698 0.195082 5.2986
rCollar  2.67893e-016 -5.20816e-014 1.63997e-015
rShldr  78.6916 19.9077 33.8289
rForeArm  -5.4183 -0.423308 99.3185
rHand  -6.53144 -39.2392 21.8841
lThigh  -0.746849 -19.3509 -0.69815
lShin  -3.34781 70.5827 5.30249
lFoot  2.00373 0.00956727 -12.6599
rThigh  26.2699 -21.55 -0.488429
rShin  -2.60161 35.4571 -2.03046
rFoot  -8.22592 1.17068 1.08252
83
root  -6.55936 35.6478 7.08673 -167.549 -1.46579 84.0039
abdomen  -0.968579 -0.395345 -15.4256
chest  -3.72803 -10.4456 3.72319
neckDummy  3.03321e-021 0 6.73878e-016
neck  -7.44065 18.1387 19.3876
head  -15.3744 -9.10033 -1.11026
figureHair  0 0 -1.04948e-014
lCollar  -3.38943e-016 -6.49156e-016 -7.51406e-014
lShldr  7.98424 -6.53325 -66.0993
lForeArm  44.0114 -72.2735 5.20779
lHand  0.254698 0.195082 5.2986
rCollar  2.67893e-016 -5.20816e-014 1.63997e-015
rShldr  70.5855 14.733 38.0094
rForeArm  -7.51114 -0.0522516 82.2575
rHand  -2.55912 -34.3507 12.7229
lThigh  -2.44752 -24.8649 -1.65719
lShin  -5.0166 71.6174 5.6061
lFoot  3.95911 -0.0826659 -10.2287
rThigh  27.3485 -17.1949 -0.741362
rShin  -3.05828 32.7555 -2.00887
rFoot  -8.1703 1.3353 2.14507
84
root  -8.13215 36.2334 6.92086 -166.966 -0.226338 84.77
abdomen  -0.0900689 -1.18542 -14.6136
chest  -1.61999 -6.13192 3.03459
neckDummy  3.03321e-021 0 6.73878e-016
neck  -9.8408 19.2779 16.7505
head  -17.8256 -11.0116 -1.04418
figureHair  0 0 -1.04948e-014
lCollar  -3.38943e-016 -6.49156e-016 -7.51406e-014
lShldr  5.21433 -3.09778 -64.8148
lForeArm  43.3029 -70.3458 4.48087
lHand  0.254698 0.195082 5.2986
rCollar  2.67893e-016 -5.20816e-014 1.63997e-015
rShldr  64.707 9.39042 42.5913
rForeArm  -7.86725 0.423285 60.0929
rHand  -9.25241 -39.5407 28.0356
lThigh  -3.53518 -28.2787 -3.00395
lShin  -2.91381 67.4992 4.78832
lFoot  1.83921 -0.0449589 -8.69487
rThigh  28.5889 -12.6769 -0.973593
rShin  -4.02611 29.1699 -1.64025
rFoot  -6.86977 1.19497 2.45675
85
root  -9.64444 36.6894 6.79049 -166.371 0.644988 85.6969
abdomen  1.062 -1.69899 -14.3561
chest  0.31637 -3.36756 3.3474
neckDummy  3.03321e-021 0 6.73878e-016
neck  -11.3942 21.7671 13.8931
head  -19.9981 -12.6913 -0.608774
figureHair  0 0 -1.04948e-014
lCollar  -3.38943e-016 -6.49156e-016 -7.51406e-014
lShldr  3.19153 -0.271878 -62.86
lForeArm  42.2619 -69.1866 4.127
lHand  0.254698 0.195082 5.2986
rCollar  2.67893e-016 -5.20816e-014 1.63997e-015
rShldr  70.0647 6.32248 44.41
rForeArm  -7.31144 0.469484 57.7451
rHand  -20.5491 -46.5067 49.5065
lThigh  -3.80014 -30.2509 -4.56142
lShin  -0.571768 59.7406 3.76791
lFoot  -0.446595 -0.013329 -7.71063
rThigh  27.131 -8.78901 -1.11834
rShin  -1.97805 25.9671 0.601543
rFoot  -5.96069 0.971043 1.78547
86
root  -11.1044 36.9315 6.75907 -165.698 1.12238 87.1343
abdomen  1.55206 -1.14578 -13.5863
chest  0.900483 -3.25728 4.29439
neckDummy  3.03321e-021 0 6.73878e-016
neck  -10.6962 23.3082 10.3087
head  -19.5388 -12.0515 1.52643
figureHair  0 0 -1.04948e-014
lCollar  -3.38943e-016 -6.49156e-016 -7.51406e-014
lShldr  1.00644 3.40757 -59.711
lForeArm  41.0942 -69.3413 4.17423
lHand  0.254698 0.195082 5.2986
rCollar  2.67893e-016 -5.20816e-014 1.63997e-015
rShldr  76.0577 0.0859162 45.7707
rForeArm  -12.7111 0.119092 74.3308
rHand  -8.74861 -39.4358 26.3812
lThigh  -4.05672 -31.3908 -6.19186
lShin  -0.507867 49.5124 2.99015
lFoot  -0.525807 0.0373702 -6.71497
rThigh  23.99 -6.21846 -1.19985
rShin  2.01418 23.6569 3.19182
rFoot  -5.62846 0.975932 2.14623
87
root  -12.5904 36.9317 6.84365 -166.082 1.32896 88.4524
abdomen  1.16547 -1.92217 -11.9066
chest  0.884215 -1.58326 5.17008
neckDummy  3.03321e-021 0 6.73878e-016
neck  -8.33358 19.7217 6.00497
head  -15.1865 -7.9532 3.22425
figureHair  0 0 -1.04948e-014
lCollar  -3.38943e-016 -6.49156e-016 -7.51406e-014
lShldr  -2.21152 6.78098 -54.3661
lForeArm  41.2749 -68.7658 4.03792
lHand  0.254698 0.195082 5.2986
rCollar  2.67893e-016 -5.20816e-014 1.63997e-015
rShldr  68.2466 -14.7479 50.5514
rForeArm  -14.1338 0.0658507 76.7738
rHand  0.0691526 -28.4892 4.18667
lThigh  -5.50207 -31.2838 -7.32288
lShin  -1.17598 38.0907 2.49227
lFoot  0.142776 -0.0114007 -6.14774
rThigh  20.3949 -4.07532 -0.952915
rShin  5.60377 21.7701 4.94862
rFoot  -4.78521 1.07476 3.87884
88
root  -14.1564 36.8091 6.98327 -168.211 1.4896 88.7165
abdomen  1.49699 -6.59533 -11.0116
chest  3.05707 5.55529 6.56161
neckDummy  3.03321e-021 0 6.73878e-016
neck  -6.95865 12.0123 0.841473
head  -10.3731 -2.66531 2.97231
figureHair  0 0 -1.04948e-014
lCollar  -3.38943e-016 -6.49156e-016 -7.51406e-014
lShldr  -5.71428 5.76801 -47.3288
lForeArm  42.6675 -65.1652 3.16957
lHand  0.254698 0.195082 5.2986
rCollar  2.67893e-016 -5.20816e-014 1.63997e-015
rShldr  50.493 -31.2018 57.8732
rForeArm  -13.3293 0.431967 59.8105
rHand  -7.1957 -39.6291 24.09
lThigh  -9.21796 -28.9934 -7.38365
lShin  -0.464455 26.2604 1.73955
lFoot  0.702147 -0.025125 -5.61681
rThigh  16.1658 -1.34637 -0.259785
rShin  7.79302 20.1134 5.55024
rFoot  -4.05855 1.14275 5.38551
